<?xml version="1.0" encoding="iso-8859-1"?>
<!-- Generator: Adobe Illustrator 19.0.0, SVG Export Plug-In . SVG Version: 6.00 Build 0)  -->
<svg version="1.1" id="Layer_1" xmlns="http://www.w3.org/2000/svg" xmlns:xlink="http://www.w3.org/1999/xlink" x="0px" y="0px"
	 viewBox="0 0 496 496" style="enable-background:new 0 0 496 496;" xml:space="preserve">
<g>
	<g>
		<g>
			<path d="M80,392c-13.232,0-24,10.768-24,24s10.768,24,24,24s24-10.768,24-24S93.232,392,80,392z M80,424c-4.416,0-8-3.584-8-8
				c0-4.416,3.584-8,8-8s8,3.584,8,8C88,420.416,84.416,424,80,424z"/>
			<path d="M440,136V80h16V64h-72h-56v16h16v56h-56v64h24v296h16V200h16v200c0,26.472,21.528,48,48,48s48-21.528,48-48V200h16v296
				h16V200h24v-64H440z M360,80h64v56h-64V80z M424,400c0,17.648-14.352,32-32,32c-12.104,0-22.536-6.832-27.968-16.768
				C384.464,411.44,400,393.512,400,372c0-22.904-17.608-41.768-40-43.8V256h20.448c-2.752,4.728-4.448,10.144-4.448,16
				c0,17.648,14.352,32,32,32c5.856,0,11.272-1.696,16-4.448V400z M360,399.592v-55.184c13.536,1.96,24,13.528,24,27.592
				S373.536,397.632,360,399.592z M408,288c-8.824,0-16-7.176-16-16c0-8.824,7.176-16,16-16c8.824,0,16,7.176,16,16
				C424,280.824,416.824,288,408,288z M424,240h-64v-40h64V240z M480,184H304v-32h176V184z"/>
			<path d="M408,40c0-13.232-10.768-24-24-24s-24,10.768-24,24s10.768,24,24,24S408,53.232,408,40z M384,48c-4.416,0-8-3.584-8-8
				s3.584-8,8-8c4.416,0,8,3.584,8,8S388.416,48,384,48z"/>
			<path d="M448,40c22.056,0,40-17.944,40-40h-16c0,13.232-10.768,24-24,24s-24-10.768-24-24h-16C408,22.056,425.944,40,448,40z"/>
			<path d="M176,230.144V40h16V24h-16h-32V0h-16v24H96H80v16h16v190.144C39.168,247.584,0,300.12,0,360c0,74.992,61.008,136,136,136
				s136-61.008,136-136C272,300.12,232.832,247.584,176,230.144z M256,360c0,66.168-53.832,120-120,120S16,426.168,16,360
				c0-5.416,0.464-10.744,1.168-16h127.64c3.72,18.232,19.872,32,39.192,32s35.472-13.768,39.192-32h31.64
				C255.536,349.256,256,354.584,256,360z M161.472,344h45.056c-3.312,9.288-12.112,16-22.528,16S164.784,353.288,161.472,344z
				 M20.416,328c11.24-40.52,43.288-73.152,85.584-84.056l6-1.552V40h48v202.392l6,1.552c42.296,10.904,74.344,43.536,85.584,84.056
				H20.416z"/>
		</g>
	</g>
</g>
<g>
</g>
<g>
</g>
<g>
</g>
<g>
</g>
<g>
</g>
<g>
</g>
<g>
</g>
<g>
</g>
<g>
</g>
<g>
</g>
<g>
</g>
<g>
</g>
<g>
</g>
<g>
</g>
<g>
</g>
</svg>
