<svg xmlns="http://www.w3.org/2000/svg" xmlns:xlink="http://www.w3.org/1999/xlink" zoomAndPan="magnify" preserveAspectRatio="xMidYMid meet" version="1.0" viewBox="17 363.9 947 533.3"><defs fill="#000000"><clipPath id="83a4298197" fill="#000000"><path d="M 17 367 L 964 367 L 964 897.203125 L 17 897.203125 Z M 17 367 " clip-rule="nonzero" fill="#000000"/></clipPath><clipPath id="7c23eb5d1d" fill="#000000"><path d="M 267 364.058594 L 452 364.058594 L 452 853 L 267 853 Z M 267 364.058594 " clip-rule="nonzero" fill="#000000"/></clipPath></defs><g clip-path="url(#83a4298197)"><path fill="#0c0c0c" d="M 451.59375 796.480469 C 468.445312 730.214844 485.25 664.003906 502.007812 597.839844 C 502.917969 591.8125 504.296875 585.898438 506.148438 580.089844 C 512.800781 564.414062 519.15625 545.332031 540.003906 547.105469 C 558.335938 548.734375 565.136719 566.632812 567.652344 582.011719 C 574.746094 625.351562 579.476562 669.128906 585.6875 712.617188 C 587.335938 731.476562 590.3125 750.121094 594.621094 768.554688 C 598.929688 786.992188 604.527344 805.023438 611.414062 822.660156 C 614.8125 835.675781 609.046875 852.683594 626.9375 859.636719 C 634.03125 870.875 645.417969 869.839844 656.210938 869.839844 C 693.761719 869.691406 731.464844 869.25 769.015625 868.804688 C 773.71875 870.363281 778.523438 871.503906 783.425781 872.222656 C 788.328125 872.945312 793.257812 873.234375 798.210938 873.09375 C 803.164062 872.957031 808.066406 872.390625 812.921875 871.398438 C 817.777344 870.402344 822.507812 868.996094 827.117188 867.179688 C 854.171875 871.0625 881.277344 871.457031 908.433594 868.363281 C 911.71875 869.734375 915.097656 870.804688 918.574219 871.578125 C 922.050781 872.351562 925.566406 872.816406 929.121094 872.964844 C 932.679688 873.117188 936.222656 872.957031 939.75 872.480469 C 943.277344 872.003906 946.734375 871.222656 950.125 870.136719 C 957.960938 874.128906 965.5 879.160156 962.542969 889.21875 C 959.882812 898.238281 950.863281 896.316406 943.769531 896.464844 C 932.828125 896.761719 921.738281 896.464844 910.800781 896.464844 C 625.753906 896.464844 340.707031 896.019531 55.664062 897.203125 C 25.207031 897.203125 17.371094 890.105469 17.816406 859.488281 C 19.738281 709.066406 18.703125 558.644531 18.847656 408.074219 C 18.847656 398.3125 18.847656 388.550781 19.441406 378.789062 C 19.738281 371.984375 23.136719 367.105469 30.382812 367.105469 C 31.148438 367.042969 31.910156 367.054688 32.675781 367.144531 C 33.4375 367.230469 34.183594 367.390625 34.917969 367.625 C 35.648438 367.859375 36.351562 368.160156 37.023438 368.53125 C 37.695312 368.902344 38.328125 369.332031 38.917969 369.828125 C 39.503906 370.320312 40.042969 370.863281 40.523438 371.460938 C 41.007812 372.058594 41.425781 372.699219 41.785156 373.378906 C 42.144531 374.058594 42.433594 374.765625 42.652344 375.503906 C 42.875 376.238281 43.023438 376.988281 43.097656 377.753906 C 44.40625 388.660156 45.046875 399.605469 45.019531 410.589844 C 45.164062 550.066406 45.019531 689.542969 45.757812 829.019531 C 45.757812 840.40625 36.886719 860.226562 56.253906 861.855469 C 75.328125 863.480469 86.117188 847.210938 90.257812 829.167969 C 103.859375 768.375 117.117188 707.539062 130.027344 646.648438 C 139.933594 600.058594 148.953125 553.320312 158.5625 506.730469 C 160.597656 497.136719 163.503906 487.820312 167.285156 478.773438 C 167.710938 477.140625 168.269531 475.554688 168.957031 474.015625 C 169.644531 472.476562 170.457031 471.003906 171.386719 469.597656 C 172.316406 468.1875 173.355469 466.867188 174.507812 465.632812 C 175.65625 464.398438 176.898438 463.265625 178.230469 462.234375 C 179.566406 461.207031 180.976562 460.292969 182.464844 459.496094 C 183.949219 458.695312 185.492188 458.027344 187.085938 457.484375 C 188.683594 456.941406 190.3125 456.53125 191.976562 456.257812 C 193.640625 455.984375 195.316406 455.847656 197.003906 455.847656 C 197.847656 455.925781 198.6875 456.042969 199.519531 456.199219 C 200.355469 456.351562 201.179688 456.542969 201.996094 456.769531 C 202.8125 456.996094 203.617188 457.261719 204.414062 457.558594 C 205.207031 457.859375 205.984375 458.191406 206.75 458.558594 C 207.511719 458.929688 208.257812 459.328125 208.988281 459.765625 C 209.714844 460.199219 210.421875 460.664062 211.109375 461.164062 C 211.796875 461.660156 212.457031 462.1875 213.097656 462.746094 C 213.738281 463.300781 214.351562 463.886719 214.9375 464.5 C 215.527344 465.109375 216.085938 465.746094 216.617188 466.40625 C 217.148438 467.070312 217.648438 467.753906 218.121094 468.457031 C 218.589844 469.164062 219.027344 469.890625 219.433594 470.632812 C 219.839844 471.378906 220.210938 472.140625 220.550781 472.917969 C 220.886719 473.695312 221.191406 474.488281 221.457031 475.292969 C 221.726562 476.097656 221.957031 476.914062 222.152344 477.738281 C 222.347656 478.566406 222.503906 479.398438 222.625 480.238281 C 222.746094 481.078125 222.828125 481.921875 222.875 482.769531 C 228.9375 520.1875 234.554688 557.609375 238.84375 595.175781 C 244.160156 658.304688 253.769531 720.769531 267.671875 782.574219 C 268.117188 805.058594 269.59375 827.242188 286.449219 844.84375 C 287.925781 854.605469 289.847656 867.03125 300.9375 867.179688 C 344.40625 867.917969 389.644531 882.265625 429.710938 852.535156 C 446.566406 837.597656 444.9375 815.410156 451.296875 796.332031 Z M 180.59375 869.839844 C 196.558594 869.839844 212.378906 869.25 228.199219 869.988281 C 248.894531 871.023438 258.359375 865.996094 249.191406 842.921875 C 242.347656 822.664062 236.824219 802.054688 232.617188 781.089844 C 228.410156 760.121094 225.558594 738.976562 224.058594 717.644531 C 216.074219 654.636719 208.386719 591.628906 200.253906 528.617188 C 199.367188 521.667969 198.925781 513.828125 190.941406 510.128906 C 189.316406 515.898438 187.394531 521.667969 186.0625 527.582031 C 166.546875 619.582031 147.476562 711.582031 127.664062 803.429688 C 113.324219 869.839844 113.027344 869.691406 180.445312 869.691406 Z M 525.21875 869.839844 C 538.671875 869.839844 552.125 869.546875 565.582031 869.839844 C 580.511719 870.285156 588.644531 867.328125 583.320312 848.839844 C 562.03125 775.773438 554.34375 700.191406 543.402344 625.203125 C 542.074219 616.328125 543.847656 606.566406 536.75 599.171875 C 532.488281 607.808594 528.9375 616.734375 526.105469 625.941406 C 510.730469 687.621094 496.535156 749.59375 480.71875 811.121094 C 465.488281 869.988281 464.75 869.839844 525.367188 869.691406 Z M 525.21875 869.839844 " fill-opacity="1" fill-rule="nonzero"/></g><path fill="#01090c" d="M 627.085938 859.636719 C 609.046875 852.683594 614.8125 835.824219 611.558594 822.660156 C 634.03125 728.886719 656.457031 635.011719 678.828125 541.042969 C 683.5625 521.222656 689.476562 499.183594 713.425781 500.367188 C 739.59375 501.550781 742.847656 526.546875 745.804688 546.960938 C 758.074219 629.195312 764.875 712.171875 782.617188 793.519531 C 785.871094 808.3125 789.121094 835.230469 796.070312 834.195312 C 814.257812 831.53125 809.820312 809.199219 812.925781 794.261719 C 824.605469 739.238281 835.695312 684.21875 847.375 629.195312 C 849.839844 619.769531 852.796875 610.5 856.242188 601.390625 C 856.582031 600.207031 857.019531 599.066406 857.5625 597.960938 C 858.105469 596.859375 858.742188 595.8125 859.472656 594.824219 C 860.207031 593.835938 861.019531 592.921875 861.914062 592.082031 C 862.808594 591.238281 863.773438 590.484375 864.804688 589.816406 C 865.835938 589.148438 866.917969 588.578125 868.054688 588.105469 C 869.1875 587.632812 870.355469 587.265625 871.554688 587.003906 C 872.757812 586.742188 873.972656 586.589844 875.199219 586.546875 C 876.425781 586.503906 877.648438 586.570312 878.863281 586.746094 C 889.214844 587.191406 892.613281 594.882812 896.015625 603.164062 C 908.878906 635.554688 908.136719 670.3125 913.3125 704.035156 C 919.078125 742.640625 924.84375 781.390625 929.132812 820.292969 C 929.714844 824.8125 930.609375 829.273438 931.8125 833.671875 C 933.015625 838.070312 934.519531 842.363281 936.316406 846.554688 C 938.117188 850.742188 940.199219 854.789062 942.5625 858.6875 C 944.921875 862.585938 947.542969 866.304688 950.421875 869.839844 C 947.027344 870.910156 943.566406 871.675781 940.042969 872.144531 C 936.515625 872.609375 932.972656 872.765625 929.417969 872.613281 C 925.867188 872.464844 922.351562 872.007812 918.875 871.242188 C 915.402344 870.476562 912.019531 869.417969 908.730469 868.066406 C 891.875 810.085938 889.066406 750.183594 881.527344 690.726562 C 880.636719 684.21875 881.378906 673.125 872.359375 673.421875 C 862.898438 673.714844 866.296875 684.660156 864.820312 691.167969 C 852.105469 749.742188 839.832031 808.3125 827.414062 866.882812 C 822.804688 868.703125 818.074219 870.109375 813.21875 871.101562 C 808.363281 872.09375 803.457031 872.660156 798.503906 872.800781 C 793.550781 872.9375 788.625 872.648438 783.722656 871.925781 C 778.820312 871.207031 774.015625 870.066406 769.3125 868.511719 C 764.136719 847.507812 757.484375 826.652344 754.082031 805.207031 C 741.222656 724.742188 729.246094 643.988281 716.972656 563.378906 C 716.234375 558.941406 714.757812 554.652344 713.722656 550.363281 C 710.492188 553.632812 707.683594 557.230469 705.292969 561.160156 C 702.914062 566.792969 701.140625 572.609375 699.972656 578.613281 L 642.3125 827.539062 C 642.160156 830.566406 641.714844 833.550781 640.980469 836.488281 C 640.242188 839.425781 639.226562 842.265625 637.933594 845.007812 C 636.640625 847.746094 635.09375 850.335938 633.292969 852.773438 C 631.492188 855.207031 629.472656 857.449219 627.230469 859.488281 Z M 627.085938 859.636719 " fill-opacity="1" fill-rule="nonzero"/><g clip-path="url(#7c23eb5d1d)"><path fill="#01090c" d="M 286.597656 844.992188 C 269.742188 827.390625 268.410156 805.207031 267.820312 782.722656 C 289.996094 659.367188 311.878906 536.015625 334.351562 412.808594 C 336.785156 402.136719 339.941406 391.6875 343.8125 381.453125 C 344.171875 380.113281 344.640625 378.820312 345.226562 377.566406 C 345.8125 376.3125 346.5 375.117188 347.292969 373.984375 C 348.085938 372.851562 348.972656 371.796875 349.953125 370.816406 C 350.933594 369.839844 351.988281 368.957031 353.121094 368.164062 C 354.257812 367.371094 355.449219 366.683594 356.707031 366.101562 C 357.960938 365.519531 359.253906 365.050781 360.59375 364.695312 C 361.929688 364.339844 363.285156 364.101562 364.664062 363.988281 C 366.042969 363.871094 367.421875 363.875 368.800781 364 C 370.171875 364.089844 371.527344 364.289062 372.867188 364.597656 C 374.207031 364.90625 375.515625 365.320312 376.789062 365.835938 C 378.0625 366.355469 379.289062 366.972656 380.460938 367.6875 C 381.636719 368.402344 382.746094 369.207031 383.792969 370.101562 C 384.839844 370.996094 385.804688 371.96875 386.695312 373.015625 C 387.585938 374.066406 388.386719 375.179688 389.097656 376.355469 C 389.808594 377.535156 390.417969 378.761719 390.933594 380.039062 C 391.445312 381.316406 391.855469 382.625 392.160156 383.964844 C 404.726562 419.019531 403.394531 455.996094 407.683594 492.234375 C 418.769531 584.230469 428.085938 676.378906 437.695312 768.375 C 437.632812 769.738281 437.660156 771.09375 437.765625 772.453125 C 437.875 773.808594 438.070312 775.152344 438.347656 776.488281 C 438.625 777.820312 438.984375 779.128906 439.425781 780.417969 C 439.867188 781.707031 440.386719 782.960938 440.984375 784.183594 C 441.582031 785.40625 442.253906 786.585938 443 787.726562 C 443.746094 788.863281 444.5625 789.953125 445.441406 790.988281 C 446.324219 792.023438 447.265625 793.003906 448.273438 793.921875 C 449.277344 794.839844 450.332031 795.691406 451.445312 796.480469 C 445.085938 815.558594 446.714844 837.597656 429.859375 852.683594 C 423.878906 841.34375 419.144531 829.503906 415.65625 817.167969 C 412.167969 804.828125 410.003906 792.265625 409.160156 779.46875 C 396.296875 668.09375 384.324219 556.574219 371.753906 445.050781 C 371.015625 438.839844 374.710938 431.148438 367.171875 426.414062 C 363.363281 432.378906 360.40625 438.738281 358.300781 445.496094 C 350.023438 493.566406 343.222656 541.929688 334.5 590 C 319.121094 675.046875 302.5625 759.945312 286.597656 844.84375 Z M 286.597656 844.992188 " fill-opacity="1" fill-rule="nonzero"/></g><path fill="#ffffff" d="M 286.597656 844.992188 C 302.710938 760.09375 319.121094 675.195312 334.5 590.148438 C 343.222656 542.078125 350.023438 493.710938 358.300781 445.644531 C 360.40625 438.886719 363.363281 432.527344 367.171875 426.5625 C 374.710938 431.148438 371.015625 438.839844 371.753906 445.199219 C 384.324219 556.722656 396.296875 668.09375 409.160156 779.617188 C 410.003906 792.410156 412.167969 804.976562 415.65625 817.316406 C 419.144531 829.652344 423.878906 841.492188 429.859375 852.832031 C 389.792969 882.5625 344.550781 868.066406 301.085938 867.472656 C 289.996094 867.328125 287.925781 854.902344 286.597656 845.140625 Z M 286.597656 844.992188 " fill-opacity="1" fill-rule="nonzero"/><path fill="#ffffff" d="M 180.445312 869.988281 C 113.027344 869.988281 113.324219 869.988281 127.664062 803.726562 C 147.476562 711.875 166.546875 619.730469 186.0625 527.878906 C 187.246094 521.964844 189.316406 516.34375 190.941406 510.425781 C 198.925781 514.125 199.367188 521.964844 200.253906 528.914062 C 208.386719 591.921875 216.320312 654.933594 224.058594 717.941406 C 225.492188 739.28125 228.3125 760.433594 232.519531 781.402344 C 236.726562 802.371094 242.285156 822.976562 249.191406 843.21875 C 258.507812 866.144531 248.894531 871.320312 228.199219 870.285156 C 212.378906 869.546875 196.410156 870.136719 180.59375 870.285156 Z M 180.445312 869.988281 " fill-opacity="1" fill-rule="nonzero"/><path fill="#ffffff" d="M 627.085938 859.636719 C 629.316406 857.589844 631.332031 855.347656 633.128906 852.910156 C 634.925781 850.472656 636.472656 847.882812 637.765625 845.144531 C 639.058594 842.40625 640.074219 839.566406 640.8125 836.628906 C 641.554688 833.691406 642.003906 830.710938 642.164062 827.6875 L 699.824219 578.757812 C 700.992188 572.757812 702.769531 566.941406 705.148438 561.304688 C 707.476562 557.335938 710.289062 553.734375 713.574219 550.507812 C 714.609375 554.796875 716.085938 559.089844 716.828125 563.523438 C 729.097656 644.132812 741.074219 724.890625 753.933594 805.351562 C 757.335938 826.652344 763.988281 847.507812 769.164062 868.65625 C 731.609375 868.953125 693.910156 869.546875 656.359375 869.691406 C 645.566406 869.691406 634.179688 870.726562 627.085938 859.488281 Z M 627.085938 859.636719 " fill-opacity="1" fill-rule="nonzero"/><path fill="#ffffff" d="M 525.070312 869.988281 C 464.453125 869.988281 465.195312 870.136719 480.421875 811.269531 C 496.390625 749.742188 510.433594 687.765625 525.808594 626.089844 C 528.796875 616.941406 532.34375 608.019531 536.457031 599.320312 C 543.550781 606.714844 541.925781 616.625 543.109375 625.351562 C 554.195312 700.339844 561.882812 775.917969 583.027344 848.984375 C 588.347656 867.472656 580.21875 870.285156 565.285156 869.988281 C 551.832031 869.691406 538.378906 869.988281 524.921875 869.988281 Z M 525.070312 869.988281 " fill-opacity="1" fill-rule="nonzero"/><path fill="#ffffff" d="M 827.265625 867.179688 C 839.6875 808.605469 851.957031 750.035156 864.671875 691.464844 C 866.003906 685.105469 862.75 674.011719 872.210938 673.714844 C 881.082031 673.421875 880.492188 684.511719 881.378906 691.019531 C 888.917969 750.332031 891.726562 810.382812 908.582031 868.363281 C 881.425781 871.457031 854.320312 871.0625 827.265625 867.179688 Z M 827.265625 867.179688 " fill-opacity="1" fill-rule="nonzero"/></svg>